<svg xmlns="http://www.w3.org/2000/svg" width="145.52" height="130.501" viewBox="0 0 145.52 130.501">
  <g id="Group_7886" data-name="Group 7886" transform="translate(-227.429 -79.798)">
    <g id="Layer_3" data-name="Layer 3" transform="translate(227.429 79.798)">
      <g id="Group_7871" data-name="Group 7871">
        <g id="Group_7870" data-name="Group 7870">
          <path id="Path_4064" data-name="Path 4064" d="M368.344,154.162a36.076,36.076,0,0,1-4.477,6.246q-.777.935-1.618,1.81c-.252.262-.5.519-.751.777a31.151,31.151,0,0,1-11.238,7.514l-.4.15a42.759,42.759,0,0,1-12.117,2.692,110,110,0,0,1-12.924.31q-.845-.017-1.694.019a37.664,37.664,0,0,0-5.209.467c-6.774.925-12.4,4.426-17.416,8.977a91.258,91.258,0,0,0-7.13,7.393c-6.622,9.234-15.584,17.694-26.346,19.451a25.011,25.011,0,0,1-6.666.195c-13.013-.491-24.423-9.591-28.756-21.723-3.322-9.171.433-18.343,2.166-27.659a8.081,8.081,0,0,0-.207-4.7c-.606-1.75-1.319-3.478-2.044-5.206-2.177-5.183-4.465-10.355-4.032-16.1.65-7.366,3.539-14.66,9.46-19.5,9.388-7.8,21.52-5.416,32.57-6.427,6.138-.578,10.977-4.189,15.311-8.075q2.261-1.826,4.508-3.663c1.563-1.378,3.182-2.7,4.85-3.945s3.386-2.417,5.146-3.5c10.639-6.494,22.97-11.207,34.48-9.544C378,86.524,376.722,138.295,368.344,154.162Z" transform="translate(-227.429 -79.798)" fill="#fff"/>
          <g id="Group_7869" data-name="Group 7869" transform="translate(32.034 0.421)">
            <path id="Path_4065" data-name="Path 4065" d="M697.43,94.877a9.519,9.519,0,0,1-3.2,7.709,16.234,16.234,0,0,1-9.026,4.089,17.325,17.325,0,0,1-9.609-1.2,7.763,7.763,0,0,1-4.546-6.6,10.691,10.691,0,0,1,.676-4.692,12.247,12.247,0,0,1,2.587-4.079,15.081,15.081,0,0,1,18.632-2.233A9.446,9.446,0,0,1,697.43,94.877Z" transform="translate(-671.017 -85.622)" fill="#fff"/>
            <ellipse id="Ellipse_35" data-name="Ellipse 35" cx="5.407" cy="4.325" rx="5.407" ry="4.325" transform="translate(41.563 115.683) rotate(-21.875)" fill="#fff"/>
            <ellipse id="Ellipse_36" data-name="Ellipse 36" cx="3.171" cy="2.781" rx="3.171" ry="2.781" transform="translate(35.402 122.085) rotate(-31.008)" fill="#fff"/>
          </g>
        </g>
      </g>
      <ellipse id="Ellipse_37" data-name="Ellipse 37" cx="62.612" cy="2.509" rx="62.612" ry="2.509" transform="translate(15.429 112.14)" fill="rgba(0,0,0,0.13)"/>
    </g>
    <g id="Layer_2" data-name="Layer 2" transform="translate(240.663 96.607)">
      <g id="Group_7874" data-name="Group 7874" transform="translate(0 11.48)">
        <g id="Group_7873" data-name="Group 7873" transform="translate(38.351 62.605)">
          <g id="Group_7872" data-name="Group 7872">
            <path id="Path_4066" data-name="Path 4066" d="M1072.062,1361H1043.24l3.991-22.572h20.839Z" transform="translate(-1035.909 -1338.432)" fill="#cfcfcf"/>
            <path id="Path_4067" data-name="Path 4067" d="M1083.41,1359.713H1056.5l3.365-17.282h20.177Z" transform="translate(-1048.216 -1342.143)" fill="#cfcfcf" opacity="0.74" style="mix-blend-mode: multiply;isolation: isolate"/>
            <path id="Path_4068" data-name="Path 4068" d="M1135.613,1409.009h-14.259a1.768,1.768,0,0,1-1.741-2.076l2.191-12.393h13.357l2.191,12.393A1.768,1.768,0,0,1,1135.613,1409.009Z" transform="translate(-1106.743 -1390.489)" fill="#fff"/>
            <path id="Rectangle_2413" data-name="Rectangle 2413" d="M1.873,0H41.609a1.873,1.873,0,0,1,1.873,1.873v0a0,0,0,0,1,0,0H0a0,0,0,0,1,0,0v0A1.873,1.873,0,0,1,1.873,0Z" transform="translate(0 21.246)" fill="#48404e"/>
          </g>
        </g>
        <rect id="Rectangle_2414" data-name="Rectangle 2414" width="120.185" height="74.143" rx="6" fill="#48404e"/>
        <path id="Line_1" data-name="Line 1" d="M24.219-4.679H-5.09a.41.41,0,0,1-.41-.41.41.41,0,0,1,.41-.41H24.219a.41.41,0,0,1,.41.41A.41.41,0,0,1,24.219-4.679Z" transform="translate(50.528 74.163)" fill="#fff" opacity="0.14"/>
      </g>
      <g id="Group_7875" data-name="Group 7875" transform="translate(120.107 2.825)">
        <path id="Line_2" data-name="Line 2" d="M-6.308-1.238l-.056-5.115.939-.01.056,5.115Z" transform="translate(6.363 6.363)" fill="#0188c2"/>
        <path id="Line_3" data-name="Line 3" d="M-8.231-3.137-8.9-3.794l5-5.109.672.657Z" transform="translate(11.208 9.422)" fill="#0188c2"/>
        <path id="Line_4" data-name="Line 4" d="M-1.18-5.356H-6.3V-6.3H-1.18Z" transform="translate(9.96 14.113)" fill="#0188c2"/>
      </g>
      <g id="Group_7884" data-name="Group 7884" transform="translate(13.205)">
        <g id="Group_7883" data-name="Group 7883">
          <g id="Group_7882" data-name="Group 7882">
            <rect id="Rectangle_2415" data-name="Rectangle 2415" width="94.234" height="68.244" transform="translate(3.7 11.482)" fill="#0b6770" opacity="0.29" style="mix-blend-mode: multiply;isolation: isolate"/>
            <g id="Group_7877" data-name="Group 7877">
              <g id="Group_7876" data-name="Group 7876">
                <rect id="Rectangle_2416" data-name="Rectangle 2416" width="93.729" height="73.197" transform="translate(0.024 2.887)" fill="#f7f7f7"/>
                <rect id="Rectangle_2417" data-name="Rectangle 2417" width="93.729" height="9.247" fill="#0188c2"/>
              </g>
            </g>
            <g id="Group_7878" data-name="Group 7878" transform="translate(3.524 3.339)" opacity="0.33">
              <path id="Path_4069" data-name="Path 4069" d="M644.394,362.6a1.033,1.033,0,1,1-1.034-1.033A1.033,1.033,0,0,1,644.394,362.6Z" transform="translate(-642.328 -361.363)" fill="#fff"/>
              <path id="Path_4070" data-name="Path 4070" d="M688.552,362.561a1.033,1.033,0,1,1-1.034-1.033A1.033,1.033,0,0,1,688.552,362.561Z" transform="translate(-683.297 -361.332)" fill="#fff"/>
              <circle id="Ellipse_38" data-name="Ellipse 38" cx="1.033" cy="1.033" r="1.033" transform="translate(6.183 2.02) rotate(-77.819)" fill="#fff"/>
            </g>
            <path id="Line_5" data-name="Line 5" d="M-7.051-5.974V-7.025l34.238-.027V-6Z" transform="translate(36.82 10.946)" fill="#fff" opacity="0.33"/>
            <g id="Group_7880" data-name="Group 7880" transform="translate(5.684 14.233)">
              <g id="Group_7879" data-name="Group 7879" transform="translate(50.517 0)">
                <path id="Line_6" data-name="Line 6" d="M-10.782-9.15v-1.608L21.1-10.783v1.608Z" transform="translate(10.783 10.783)" fill="#acb5bd" opacity="0.33"/>
                <path id="Line_7" data-name="Line 7" d="M-10.782-9.163v-1.608l15.939-.012v1.608Z" transform="translate(26.732 14.572)" fill="#acb5bd" opacity="0.33"/>
              </g>
              <path id="Line_8" data-name="Line 8" d="M-10.782-9.164v-1.608l14.461-.011v1.608Z" transform="translate(10.783 10.836)" fill="#acb5bd" opacity="0.33"/>
            </g>
            <g id="Group_7881" data-name="Group 7881" transform="translate(5.802 24.453)">
              <path id="Path_4071" data-name="Path 4071" d="M696.383,697.082l-20.736.016a1.749,1.749,0,0,1-1.75-1.747l-.026-41.8a1.749,1.749,0,0,1,1.747-1.75l20.736-.016a1.749,1.749,0,0,1,1.75,1.747l.026,41.8A1.749,1.749,0,0,1,696.383,697.082Z" transform="translate(-673.871 -651.735)" fill="#dde2e5"/>
              <path id="Path_4072" data-name="Path 4072" d="M1097.342,696.771l-20.736.016a1.749,1.749,0,0,1-1.75-1.747l-.026-41.8a1.749,1.749,0,0,1,1.747-1.75l20.736-.016a1.749,1.749,0,0,1,1.75,1.747l.026,41.8A1.749,1.749,0,0,1,1097.342,696.771Z" transform="translate(-1045.874 -651.448)" fill="#dde2e5"/>
              <path id="Path_4073" data-name="Path 4073" d="M1498.3,696.46l-20.736.016a1.749,1.749,0,0,1-1.75-1.747l-.026-41.8a1.749,1.749,0,0,1,1.747-1.75l20.736-.016a1.749,1.749,0,0,1,1.75,1.747l.026,41.8A1.749,1.749,0,0,1,1498.3,696.46Z" transform="translate(-1417.877 -651.159)" fill="#dde2e5"/>
            </g>
          </g>
        </g>
      </g>
      <g id="Group_7885" data-name="Group 7885" transform="translate(43.241 13.844)">
        <path id="Path_4074" data-name="Path 4074" d="M1023.2,550.787,1010.914,538.5l6.571-6.571,5.542,5.542,30.19-31.784,6.738,6.4Z" transform="translate(-1010.914 -505.69)" fill="#05ba69"/>
      </g>
    </g>
  </g>
</svg>
