<svg xmlns="http://www.w3.org/2000/svg" width="18.004" height="16.552" viewBox="0 0 18.004 16.552">
  <g id="Group_7894" data-name="Group 7894" transform="translate(-5.774 -9.384)">
    <path id="Path_4058" data-name="Path 4058" d="M11.037,25.936a5.246,5.246,0,0,1-5.258-4.993,5.2,5.2,0,0,1,1.365-3.791L13.87,9.734a.736.736,0,0,1,1.08,1L8.225,18.151a3.829,3.829,0,0,0-.978,2.731A3.7,3.7,0,0,0,8.49,23.49a3.8,3.8,0,0,0,5.3-.224l7.887-8.5a2.288,2.288,0,0,0,.632-1.671,2.232,2.232,0,0,0-.754-1.61,2.357,2.357,0,0,0-1.671-.611,2.268,2.268,0,0,0-1.61.754l-7.3,8.03a.856.856,0,0,0-.224.652.889.889,0,0,0,.306.611.863.863,0,0,0,1.2-.082l6.175-6.583a.736.736,0,1,1,1.08,1l-6.175,6.6a2.371,2.371,0,0,1-3.24.2,2.368,2.368,0,0,1-.224-3.4l7.316-8.03a3.825,3.825,0,0,1,2.629-1.243,3.793,3.793,0,0,1,2.935,6.379l-7.867,8.5A5.19,5.19,0,0,1,11.037,25.936Z" transform="translate(0 0)" fill="#495057"/>
  </g>
</svg>
