<svg xmlns="http://www.w3.org/2000/svg" width="19.25" height="19.47" viewBox="0 0 19.25 19.47">
  <path id="Path_4059" data-name="Path 4059" d="M33.425,17.382H28.75V16.365A1.374,1.374,0,0,0,27.265,15.1h-5.28A1.374,1.374,0,0,0,20.5,16.365v1.017H15.825a.825.825,0,1,0,0,1.65h1.017L17.86,31.847a2.752,2.752,0,0,0,2.75,2.722h8a2.752,2.752,0,0,0,2.75-2.722L32.408,19.06h1.018a.81.81,0,0,0,.825-.825A.834.834,0,0,0,33.425,17.382ZM22.15,16.75H27.1v.632H22.15Zm.33,13.393h-.027a.841.841,0,0,1-.825-.8l-.3-6.71a.8.8,0,0,1,.8-.852h.028a.841.841,0,0,1,.825.8l.3,6.71A.846.846,0,0,1,22.48,30.143Zm5.143-.8a.841.841,0,0,1-.825.8H26.77a.846.846,0,0,1-.8-.853l.3-6.71a.841.841,0,0,1,.825-.8h.028a.846.846,0,0,1,.8.852Z" transform="translate(-15 -15.1)" fill="#acb5bd"/>
</svg>
